<svg xmlns="http://www.w3.org/2000/svg" viewBox="0 0 32 32" role="img" aria-label="KHAYAL">
  <defs>
    <radialGradient id="bg" cx="50%" cy="28%" r="85%">
      <stop offset="0%" stop-color="#1a1a2e"/>
      <stop offset="100%" stop-color="#08080e"/>
    </radialGradient>
  </defs>
  <rect width="32" height="32" rx="7" fill="url(#bg)"/>
  <path transform="translate(7.786,21.689) scale(0.03260,-0.03260)" d="M132 -200Q89 -187 57.0 -147.0Q25 -107 25 -37Q25 -14 33.0 12.0Q41 38 57.0 62.5Q73 87 96 105Q80 121 64.5 139.0Q49 157 36.0 176.5Q23 196 13 214L79 342Q116 286 161.0 240.0Q206 194 249.0 167.0Q292 140 323 140H491L431 0H217Q205 0 188.0 -7.5Q171 -15 158.5 -30.5Q146 -46 146 -72Q146 -104 163.0 -123.5Q180 -143 207.0 -151.5Q234 -160 264.5 -161.0Q295 -162 323.5 -158.0Q352 -154 371 -147Q348 -174 306.0 -190.0Q264 -206 217.0 -208.5Q170 -211 132 -200ZM150 442Q126 442 109.0 459.0Q92 476 92 500Q92 524 109.0 541.0Q126 558 150 558Q174 558 191.0 541.0Q208 524 208 500Q208 476 191.0 459.0Q174 442 150 442Z" fill="#eeeef8"/>
</svg>
